# xmcd
#
# Track frame offsets: 
#        150
#        14338
#        30694
#        61639
#        79750
#        104878
#        128859
#        147751
#        166935
#        184363
#        213632
#        243516
#        281212
#        309025
#
# Disc length: 4439 seconds
#
# Revision: 0
# Processed by: cddbd v1.5.2PL0 Copyright (c) Steve Scherf et al.
# Submitted via: ExactAudioCopy v0.99pb3
#
DISCID=c711550e
DTITLE=Pork and the Havana Ducks - The Best Of 2
DYEAR=1900
DGENRE=Country Rock
TTITLE0=Let's Kill Saturday Night
TTITLE1=Louisiana BBQ
TTITLE2=Redneck Mothers (Live)
TTITLE3=Beer Tent Boogie
TTITLE4=Midnight Train to Georgia
TTITLE5=Willin
TTITLE6=Coyote Ugly (Live)
TTITLE7=Alright Guy
TTITLE8=Buddy I'm Gone
TTITLE9=Today I Started Lovin You Again (Live)
TTITLE10=Perfect Country Song (Live)
TTITLE11=On The Road (Live)
TTITLE12=A Little Help From My Friends
TTITLE13=Pukin In The Parkin Lot (Live)
EXTD=
EXTT0=
EXTT1=
EXTT2=
EXTT3=
EXTT4=
EXTT5=
EXTT6=
EXTT7=
EXTT8=
EXTT9=
EXTT10=
EXTT11=
EXTT12=
EXTT13=
PLAYORDER=
